<?xml version="1.0" encoding="UTF-8"?>
<!DOCTYPE svg PUBLIC "-//W3C//DTD SVG 1.1//EN" "http://www.w3.org/Graphics/SVG/1.1/DTD/svg11.dtd">
<!-- Creator: CorelDRAW -->
<svg xmlns="http://www.w3.org/2000/svg" xml:space="preserve" width="124.158mm" height="35.0791mm" version="1.1" style="shape-rendering:geometricPrecision; text-rendering:geometricPrecision; image-rendering:optimizeQuality; fill-rule:evenodd; clip-rule:evenodd"
viewBox="0 0 2429.92 686.54"
 xmlns:xlink="http://www.w3.org/1999/xlink"
 xmlns:xodm="http://www.corel.com/coreldraw/odm/2003">
 <defs>
  <style type="text/css">
   <![CDATA[
    .fil0 {fill:#FEFEFE}
    .fil1 {fill:#006EBF}
    .fil2 {fill:#9CD2FF}
   ]]>
  </style>
     <clipPath id="id0">
      <path d="M855.24 141.55l1574.69 0 0 506.31 -1574.69 0 0 -506.31z"/>
     </clipPath>
     <clipPath id="id1">
      <path d="M-0 0l582.64 0 0 686.54 -582.64 0 0 -686.54z"/>
     </clipPath>
     <clipPath id="id2">
      <path d="M306.99 435.28l241.41 0 0 136.76 -241.41 0 0 -136.76z"/>
     </clipPath>
     <clipPath id="id3">
      <path d="M376.15 17.93l462.2 0 0 655.21 -462.2 0 0 -655.21z"/>
     </clipPath>
 </defs>
 <g id="Camada_x0020_1">
  <metadata id="CorelCorpID_0Corel-Layer"/>
  <g id="_1775051467904">
   <g>
    <g style="clip-path:url(#id0)">
     <image x="855.24" y="141.55" width="1574.69" height="506.31" xlink:href="arel-logo-branca_Images\arel-logo-branca_ImgID1.png"/>
    </g>
   </g>
   <path class="fil0" d="M1306.83 539.37c-6.88,-16.45 -13.07,-32 -19.78,-48.14 -13.61,-32.76 -26.2,-63.6 -39.74,-96.16l-79.2 -192.72 -101.63 -0.23c-3.45,14.28 -68.82,173.62 -76.28,192.48 -6.6,16.68 -74.86,181.17 -76.54,193.47l95.14 0.01 4.75 -9.66c1.67,-4.34 2.6,-6.67 4.21,-10.68l24.18 -59.67 153.75 -0.26 33.23 81.07 97.23 0.09c-1.75,-11.37 -14.3,-37.6 -19.32,-49.59zm791.66 -321.83l-0.07 371.72 273.01 -0.25 0.08 -75.6c-34.52,0.11 -171.62,-1.24 -183.35,1.42 1.84,-100.73 0.5,-210.63 0.7,-312.63l-90.47 -0.18 0.1 15.52zm-344.19 -14.23l0.09 385.65 283.71 0.48 0.06 -75.86 -192.97 -0.11 -0.39 -79.67 172.01 -0.26 0.04 -75.79 -172.03 0.23 0.17 -78.2 189.75 -0.63 0.22 -76.02c-8.98,-2.58 -270.55,-2.53 -280.66,0.19zm-389.55 -2.64l-0.26 387.36 92.79 0.13 -0.16 -126.07 55.41 -0.79c4.29,0.87 6.65,7.97 11.36,14.94l73.09 112.75 107 0.34 -82.97 -122.31c-3.62,-5.24 -9.33,-12.33 -11.79,-17.07 25.1,-11.86 29.09,-11.5 49.35,-31.7 13.72,-13.67 24.1,-28.94 30.71,-52.32 14.01,-49.58 -6.39,-100.92 -31.75,-126.04 -30.61,-30.32 -71.16,-37.27 -126.68,-38.83 -53.9,-1.52 -112.08,-1.23 -166.09,-0.39zm93.28 188.88l0.35 -112.9c61.35,0.15 141.35,-15.09 142.18,55.21 0.87,73.44 -75.56,57.47 -142.53,57.7zm-289.03 45.11l-101.62 0.1c7.68,-14.52 48.61,-123.76 50.79,-125.66 13.6,31.75 37.12,101.07 50.84,125.56z"/>
   <g>
    <g style="clip-path:url(#id1)">
     <image x="-0" y="0" width="582.64" height="686.54" xlink:href="arel-logo-branca_Images\arel-logo-branca_ImgID2.png"/>
    </g>
   </g>
   <path class="fil1" d="M429.47 245.37c57.29,-116.07 85.94,-174.11 85.94,-174.11 -4.11,-2.79 -9.25,-4.13 -15.43,-4.02 0,0 -48.54,0.15 -145.62,0.46 -14.46,-1.24 -33.36,25.46 -56.69,80.11 0,0 -75.11,149 -225.32,446.99 -9.96,17.57 -5.45,25.7 13.55,24.39 100.14,-0.24 150.21,-0.37 150.21,-0.37 0,0 28.88,-55.78 86.64,-167.35 28.53,-55.09 64.09,-123.79 106.71,-206.09z"/>
   <path class="fil2" d="M471.95 556.26c0,0 -49.77,-34.68 -149.19,-104.79 -57.76,111.56 -86.64,167.35 -86.64,167.35 77.2,-0.16 136.29,1.31 169.99,0.04 29.35,-1.1 27.17,1.58 40.44,-20.34 9.23,-15.24 17.69,-29.33 25.41,-42.25z"/>
   <g>
    <g style="clip-path:url(#id2)">
     <image x="306.99" y="435.28" width="241.41" height="136.76" xlink:href="arel-logo-branca_Images\arel-logo-branca_ImgID3.png"/>
    </g>
   </g>
   <path class="fil0" d="M322.77 451.46c99.42,70.11 149.19,104.79 149.19,104.79 40.89,-68.49 60.67,-104.09 60.67,-104.09 -140.66,-1.99 -209.85,-0.7 -209.85,-0.7z"/>
   <g>
    <g style="clip-path:url(#id3)">
     <image x="376.15" y="17.93" width="462.2" height="655.21" xlink:href="arel-logo-branca_Images\arel-logo-branca_ImgID4.png"/>
    </g>
   </g>
   <path class="fil2" d="M429.47 245.37c0,0 34.38,68.93 103.15,206.8 13.33,26.73 27.96,56.05 43.87,87.96 4.02,7.9 4.7,15.15 2.05,21.74 0,0 -6.61,14.6 -19.82,43.8 -2.48,11.61 28.12,13.1 101.78,12.12 32.92,-0.44 78.8,4.84 109.76,-0.09 13.7,-2.19 17.86,-9.79 12.47,-22.8 -70.23,-165.51 -175.82,-349.24 -258.01,-510.72 -2.04,-5.79 -5.14,-10.1 -9.3,-12.92 0,0 -28.65,58.04 -85.94,174.11z"/>
  </g>
 </g>
</svg>
