<?xml version="1.0" encoding="UTF-8"?>
<svg id="Layer_2" data-name="Layer 2" xmlns="http://www.w3.org/2000/svg" viewBox="0 0 1920 1920">
  <defs>
    <style>
      .cls-1 {
        fill: #01092d;
      }
    </style>
  </defs>
  <g>
    <path class="cls-1" d="M676.43,1083.03c-26.16,0-48.88-5.08-68.16-15.26-19.29-10.17-34.15-24.57-44.58-43.19-10.44-18.63-15.65-40.62-15.65-65.98s5.08-47.22,15.26-65.58c10.17-18.36,24.7-32.49,43.59-42.4,18.89-9.91,41.14-14.86,66.77-14.86s47.16,4.82,65.39,14.46c18.23,9.65,32.16,23.45,41.81,41.41,9.64,17.97,14.47,39.5,14.47,64.59v23.38h-177.14c2.9,15.33,9.24,26.89,19.02,34.67,9.77,7.79,22.72,11.69,38.83,11.69,12.94,0,23.05-2.04,30.32-6.14,7.26-4.09,12.48-10.63,15.65-19.62h72.92c-5.02,25.89-17.97,46.17-38.84,60.83-20.87,14.66-47.42,21.99-79.65,21.99ZM619.36,932.05h106.2c-2.38-13.21-7.86-23.05-16.44-29.52-8.59-6.47-20.28-9.71-35.07-9.71s-26.42,3.31-35.67,9.91c-9.25,6.61-15.59,16.38-19.02,29.32Z"/>
    <path class="cls-1" d="M840.49,1173.38v-261.54h-35.67v-71.33h72.92v39.63h16.64c8.45-14,19.88-24.9,34.28-32.69,14.4-7.79,31.63-11.69,51.71-11.69,25.1,0,46.1,5.22,63.01,15.65,16.9,10.44,29.72,24.9,38.44,43.39,8.72,18.49,13.08,40.02,13.08,64.59s-4.23,46.17-12.68,64.79c-8.46,18.62-20.74,33.09-36.85,43.39-16.12,10.3-35.67,15.45-58.65,15.45-16.91,0-31.37-3.11-43.39-9.31-12.02-6.21-21.47-14.86-28.33-25.96h-1.59v125.62h-72.92ZM966.5,1019.63c18.76,0,32.69-5.41,41.81-16.25,9.12-10.83,13.67-25.49,13.67-43.99s-4.56-33.15-13.67-43.99c-9.12-10.83-23.05-16.25-41.81-16.25-16.38,0-29.32,4.56-38.83,13.67-9.51,9.11-14.27,21.73-14.27,37.84v17.44c0,16.12,4.75,28.73,14.27,37.84,9.51,9.12,22.45,13.67,38.83,13.67Z"/>
    <path class="cls-1" d="M1237.56,1083.03c-26.15,0-49.01-5.08-68.55-15.26-19.56-10.17-34.67-24.57-45.37-43.19-10.7-18.63-16.05-40.48-16.05-65.59s5.35-46.89,16.05-65.39c10.7-18.49,25.82-32.76,45.37-42.8,19.55-10.04,42.53-15.06,68.95-15.06s49.2,5.02,68.36,15.06c19.15,10.04,34.01,24.31,44.58,42.8,10.56,18.49,15.85,40.42,15.85,65.78s-5.29,46.96-15.85,65.58c-10.57,18.62-25.5,32.96-44.78,43-19.29,10.04-42.14,15.06-68.56,15.06ZM1237.56,1019.63c18.23,0,32.16-5.48,41.81-16.45,9.64-10.96,14.46-25.69,14.46-44.18s-4.82-33.09-14.46-43.79c-9.65-10.7-23.58-16.05-41.81-16.05s-32.63,5.35-42.4,16.05c-9.78,10.7-14.66,25.3-14.66,43.79s4.89,33.23,14.66,44.18c9.77,10.97,23.91,16.45,42.4,16.45Z"/>
    <path class="cls-1" d="M1411.92,1078.27v-166.44h-35.67v-71.33h72.92v39.63h16.64c9.51-13.73,21.2-24.5,35.07-32.3,13.87-7.79,31.63-11.69,53.3-11.69,33.81,0,59.77,9.12,77.87,27.35,18.09,18.23,27.15,42.67,27.15,73.31v141.47h-72.92v-127.21c0-16.38-4.29-28.79-12.88-37.25-8.59-8.45-21.2-12.68-37.85-12.68s-29.26,4.23-37.85,12.68c-8.59,8.46-12.88,20.87-12.88,37.25v127.21h-72.92Z"/>
  </g>
  <g>
    <rect class="cls-1" x="260.8" y="820.5" width="73.88" height="257.77"/>
    <path class="cls-1" d="M518.96,1077.86h-89.15l-2.13-2.98-6.53-9.02c-13.32-18.38-19.95-39.98-19.95-61.6s6.63-43.21,19.95-61.57v-.03l8.92-12.34c33.14-45.79.44-109.82-56.09-109.82h-39.28v-73.88h44.76c113.68,0,179.47,128.85,112.83,220.93l-8.92,12.34c-10.54,14.52-10.54,34.22,0,48.77l27.3,37.74,8.3,11.47Z"/>
  </g>
</svg>