<?xml version="1.0" encoding="UTF-8"?>
<!DOCTYPE svg PUBLIC "-//W3C//DTD SVG 1.1//EN" "http://www.w3.org/Graphics/SVG/1.1/DTD/svg11.dtd">
<!-- Creator: CorelDRAW -->
<svg xmlns="http://www.w3.org/2000/svg" xml:space="preserve" width="155.64mm" height="51.1315mm" version="1.1" style="shape-rendering:geometricPrecision; text-rendering:geometricPrecision; image-rendering:optimizeQuality; fill-rule:evenodd; clip-rule:evenodd"
viewBox="0 0 1727.06 567.38"
 xmlns:xlink="http://www.w3.org/1999/xlink"
 xmlns:xodm="http://www.corel.com/coreldraw/odm/2003">
 <defs>
  <style type="text/css">
   <![CDATA[
    .fil67 {fill:#00256E}
    .fil66 {fill:#00256F}
    .fil65 {fill:#00266F}
    .fil64 {fill:#002670}
    .fil63 {fill:#002671}
    .fil62 {fill:#002771}
    .fil61 {fill:#002772}
    .fil60 {fill:#002773}
    .fil59 {fill:#002873}
    .fil58 {fill:#002874}
    .fil57 {fill:#002875}
    .fil56 {fill:#002975}
    .fil55 {fill:#002976}
    .fil54 {fill:#002A76}
    .fil53 {fill:#002A77}
    .fil52 {fill:#002A78}
    .fil51 {fill:#002B78}
    .fil50 {fill:#002B79}
    .fil49 {fill:#002B7A}
    .fil48 {fill:#002C7A}
    .fil47 {fill:#002C7B}
    .fil46 {fill:#002C7C}
    .fil45 {fill:#002D7C}
    .fil44 {fill:#002D7D}
    .fil43 {fill:#002E7E}
    .fil42 {fill:#002E7F}
    .fil41 {fill:#002F80}
    .fil40 {fill:#002F81}
    .fil39 {fill:#003081}
    .fil38 {fill:#003082}
    .fil37 {fill:#003083}
    .fil36 {fill:#003183}
    .fil35 {fill:#003184}
    .fil34 {fill:#003284}
    .fil33 {fill:#003285}
    .fil32 {fill:#003286}
    .fil31 {fill:#003386}
    .fil30 {fill:#003387}
    .fil29 {fill:#003488}
    .fil28 {fill:#003489}
    .fil27 {fill:#003589}
    .fil26 {fill:#00358A}
    .fil25 {fill:#00368B}
    .fil24 {fill:#00368C}
    .fil23 {fill:#00378C}
    .fil22 {fill:#00378D}
    .fil21 {fill:#00388D}
    .fil20 {fill:#00388E}
    .fil19 {fill:#00398E}
    .fil18 {fill:#00398F}
    .fil17 {fill:#003A90}
    .fil16 {fill:#003B90}
    .fil15 {fill:#003B91}
    .fil14 {fill:#003C91}
    .fil13 {fill:#003D91}
    .fil12 {fill:#003E91}
    .fil10 {fill:#003F90}
    .fil11 {fill:#003F91}
    .fil69 {fill:#005CAA}
    .fil70 {fill:#0088EB}
    .fil68 {fill:#013879}
    .fil9 {fill:#013F90}
    .fil8 {fill:#014090}
    .fil6 {fill:#01418F}
    .fil7 {fill:#014190}
    .fil5 {fill:#02418F}
    .fil3 {fill:#02428E}
    .fil4 {fill:#02428F}
    .fil2 {fill:#02438E}
    .fil0 {fill:#03438D}
    .fil1 {fill:#03438E}
   ]]>
  </style>
      <clipPath id="id0">
       <path d="M607.86 100.61l1119.2 0 0 359.86 -1119.2 0 0 -359.86z"/>
      </clipPath>
      <clipPath id="id1">
       <path d="M928.82 383.35c-4.89,-11.69 -9.29,-22.75 -14.06,-34.22 -9.67,-23.28 -18.62,-45.2 -28.24,-68.35l-56.29 -136.98 -72.23 -0.17c-2.45,10.15 -48.91,123.4 -54.21,136.81 -4.69,11.86 -53.21,128.77 -54.4,137.51l67.62 0.01 3.38 -6.87c1.19,-3.08 1.85,-4.74 2.99,-7.59l17.19 -42.41 109.27 -0.19 23.62 57.62 69.11 0.06c-1.24,-8.08 -10.17,-26.72 -13.73,-35.24zm562.67 -228.74l-0.05 264.2 194.04 -0.18 0.05 -53.73c-24.54,0.08 -121.98,-0.88 -130.31,1.01 1.3,-71.59 0.36,-149.71 0.5,-222.2l-64.3 -0.13 0.07 11.03zm-244.63 -10.12l0.06 274.1 201.65 0.34 0.05 -53.91 -137.15 -0.08 -0.27 -56.63 122.25 -0.19 0.03 -53.87 -122.27 0.16 0.12 -55.58 134.86 -0.45 0.16 -54.03c-6.38,-1.83 -192.29,-1.8 -199.48,0.13zm-276.87 -1.88l-0.18 275.31 65.95 0.09 -0.11 -89.6 39.38 -0.56c3.05,0.62 4.73,5.67 8.07,10.62l51.95 80.14 76.05 0.24 -58.97 -86.93c-2.57,-3.72 -6.63,-8.76 -8.38,-12.13 17.84,-8.43 20.67,-8.18 35.08,-22.53 9.75,-9.71 17.13,-20.57 21.82,-37.18 9.96,-35.24 -4.54,-71.73 -22.57,-89.58 -21.76,-21.55 -50.57,-26.49 -90.04,-27.6 -38.31,-1.08 -79.66,-0.87 -118.05,-0.27zm66.29 134.25l0.25 -80.25c43.6,0.11 100.46,-10.72 101.06,39.24 0.62,52.2 -53.7,40.85 -101.3,41.01zm-205.42 32.06l-72.23 0.07c5.46,-10.32 34.55,-87.96 36.1,-89.31 9.67,22.57 26.38,71.84 36.13,89.24z"/>
      </clipPath>
      <clipPath id="id2">
       <path d="M-0 0l414.11 0 0 487.96 -414.11 0 0 -487.96z"/>
      </clipPath>
      <clipPath id="id3">
       <path d="M218.19 309.37l171.58 0 0 97.2 -171.58 0 0 -97.2z"/>
      </clipPath>
      <clipPath id="id4">
       <path d="M267.34 12.74l328.51 0 0 465.69 -328.51 0 0 -465.69z"/>
      </clipPath>
 </defs>
 <g id="Camada_x0020_1">
  <metadata id="CorelCorpID_0Corel-Layer"/>
  <g id="_1775045717584">
   <g>
    <g>
     <g style="clip-path:url(#id0)">
      <image x="607.86" y="100.61" width="1119.2" height="359.86" xlink:href="arel-logo-padrao-distribuidora_Images\arel-logo-padrao-distribuidora_ImgID1.png"/>
     </g>
    </g>
    <g>
     <g style="clip-path:url(#id1)">
      <polygon class="fil0" points="649.38,141.81 655.45,141.81 655.45,418.94 649.38,418.94 "/>
      <polygon id="_1" class="fil0" points="653.43,141.81 659.5,141.81 659.5,418.94 653.43,418.94 "/>
      <polygon id="_2" class="fil0" points="657.48,141.81 663.55,141.81 663.55,418.94 657.48,418.94 "/>
      <polygon id="_3" class="fil0" points="661.52,141.81 667.59,141.81 667.59,418.94 661.52,418.94 "/>
      <polygon id="_4" class="fil0" points="665.57,141.81 671.64,141.81 671.64,418.94 665.57,418.94 "/>
      <polygon id="_5" class="fil0" points="669.62,141.81 675.69,141.81 675.69,418.94 669.62,418.94 "/>
      <polygon id="_6" class="fil0" points="673.66,141.81 679.74,141.81 679.74,418.94 673.66,418.94 "/>
      <polygon id="_7" class="fil0" points="677.71,141.81 683.78,141.81 683.78,418.94 677.71,418.94 "/>
      <polygon id="_8" class="fil0" points="681.76,141.81 687.83,141.81 687.83,418.94 681.76,418.94 "/>
      <polygon id="_9" class="fil0" points="685.81,141.81 691.88,141.81 691.88,418.94 685.81,418.94 "/>
      <polygon id="_10" class="fil0" points="689.85,141.81 695.93,141.81 695.93,418.94 689.85,418.94 "/>
      <polygon id="_11" class="fil0" points="693.9,141.81 699.97,141.81 699.97,418.94 693.9,418.94 "/>
      <polygon id="_12" class="fil0" points="697.95,141.81 704.02,141.81 704.02,418.94 697.95,418.94 "/>
      <polygon id="_13" class="fil0" points="702,141.81 708.07,141.81 708.07,418.94 702,418.94 "/>
      <polygon id="_14" class="fil0" points="706.05,141.81 712.12,141.81 712.12,418.94 706.05,418.94 "/>
      <polygon id="_15" class="fil0" points="710.09,141.81 716.16,141.81 716.16,418.94 710.09,418.94 "/>
      <polygon id="_16" class="fil0" points="714.14,141.81 720.21,141.81 720.21,418.94 714.14,418.94 "/>
      <polygon id="_17" class="fil0" points="718.19,141.81 724.26,141.81 724.26,418.94 718.19,418.94 "/>
      <polygon id="_18" class="fil0" points="722.24,141.81 728.31,141.81 728.31,418.94 722.24,418.94 "/>
      <polygon id="_19" class="fil0" points="726.28,141.81 732.35,141.81 732.35,418.94 726.28,418.94 "/>
      <polygon id="_20" class="fil0" points="730.33,141.81 736.4,141.81 736.4,418.94 730.33,418.94 "/>
      <polygon id="_21" class="fil0" points="734.38,141.81 740.45,141.81 740.45,418.94 734.38,418.94 "/>
      <polygon id="_22" class="fil0" points="738.43,141.81 744.5,141.81 744.5,418.94 738.43,418.94 "/>
      <polygon id="_23" class="fil0" points="742.47,141.81 748.54,141.81 748.54,418.94 742.47,418.94 "/>
      <polygon id="_24" class="fil0" points="746.52,141.81 752.59,141.81 752.59,418.94 746.52,418.94 "/>
      <polygon id="_25" class="fil0" points="750.57,141.81 756.64,141.81 756.64,418.94 750.57,418.94 "/>
      <polygon id="_26" class="fil1" points="754.62,141.81 760.69,141.81 760.69,418.94 754.62,418.94 "/>
      <polygon id="_27" class="fil1" points="758.66,141.81 764.73,141.81 764.73,418.94 758.66,418.94 "/>
      <polygon id="_28" class="fil1" points="762.71,141.81 768.78,141.81 768.78,418.94 762.71,418.94 "/>
      <polygon id="_29" class="fil1" points="766.76,141.81 772.83,141.81 772.83,418.94 766.76,418.94 "/>
      <polygon id="_30" class="fil1" points="770.8,141.81 776.88,141.81 776.88,418.94 770.8,418.94 "/>
      <polygon id="_31" class="fil2" points="774.85,141.81 780.92,141.81 780.92,418.94 774.85,418.94 "/>
      <polygon id="_32" class="fil2" points="778.9,141.81 784.97,141.81 784.97,418.94 778.9,418.94 "/>
      <polygon id="_33" class="fil2" points="782.95,141.81 789.02,141.81 789.02,418.94 782.95,418.94 "/>
      <polygon id="_34" class="fil3" points="787,141.81 793.07,141.81 793.07,418.94 787,418.94 "/>
      <polygon id="_35" class="fil3" points="791.04,141.81 797.11,141.81 797.11,418.94 791.04,418.94 "/>
      <polygon id="_36" class="fil3" points="795.09,141.81 801.16,141.81 801.16,418.94 795.09,418.94 "/>
      <polygon id="_37" class="fil3" points="799.14,141.81 805.21,141.81 805.21,418.94 799.14,418.94 "/>
      <polygon id="_38" class="fil3" points="803.19,141.81 809.26,141.81 809.26,418.94 803.19,418.94 "/>
      <polygon id="_39" class="fil3" points="807.23,141.81 813.3,141.81 813.3,418.94 807.23,418.94 "/>
      <polygon id="_40" class="fil3" points="811.28,141.81 817.35,141.81 817.35,418.94 811.28,418.94 "/>
      <polygon id="_41" class="fil3" points="815.33,141.81 821.4,141.81 821.4,418.94 815.33,418.94 "/>
      <polygon id="_42" class="fil3" points="819.38,141.81 825.45,141.81 825.45,418.94 819.38,418.94 "/>
      <polygon id="_43" class="fil3" points="823.42,141.81 829.49,141.81 829.49,418.94 823.42,418.94 "/>
      <polygon id="_44" class="fil3" points="827.47,141.81 833.54,141.81 833.54,418.94 827.47,418.94 "/>
      <polygon id="_45" class="fil3" points="831.52,141.81 837.59,141.81 837.59,418.94 831.52,418.94 "/>
      <polygon id="_46" class="fil3" points="835.57,141.81 841.64,141.81 841.64,418.94 835.57,418.94 "/>
      <polygon id="_47" class="fil3" points="839.61,141.81 845.68,141.81 845.68,418.94 839.61,418.94 "/>
      <polygon id="_48" class="fil3" points="843.66,141.81 849.73,141.81 849.73,418.94 843.66,418.94 "/>
      <polygon id="_49" class="fil4" points="847.71,141.81 853.78,141.81 853.78,418.94 847.71,418.94 "/>
      <polygon id="_50" class="fil4" points="851.75,141.81 857.83,141.81 857.83,418.94 851.75,418.94 "/>
      <polygon id="_51" class="fil4" points="855.8,141.81 861.87,141.81 861.87,418.94 855.8,418.94 "/>
      <polygon id="_52" class="fil4" points="859.85,141.81 865.92,141.81 865.92,418.94 859.85,418.94 "/>
      <polygon id="_53" class="fil4" points="863.9,141.81 869.97,141.81 869.97,418.94 863.9,418.94 "/>
      <polygon id="_54" class="fil4" points="867.95,141.81 874.02,141.81 874.02,418.94 867.95,418.94 "/>
      <polygon id="_55" class="fil4" points="871.99,141.81 878.06,141.81 878.06,418.94 871.99,418.94 "/>
      <polygon id="_56" class="fil4" points="876.04,141.81 882.11,141.81 882.11,418.94 876.04,418.94 "/>
      <polygon id="_57" class="fil5" points="880.09,141.81 886.16,141.81 886.16,418.94 880.09,418.94 "/>
      <polygon id="_58" class="fil5" points="884.14,141.81 890.21,141.81 890.21,418.94 884.14,418.94 "/>
      <polygon id="_59" class="fil6" points="888.18,141.81 894.25,141.81 894.25,418.94 888.18,418.94 "/>
      <polygon id="_60" class="fil6" points="892.23,141.81 898.3,141.81 898.3,418.94 892.23,418.94 "/>
      <polygon id="_61" class="fil6" points="896.28,141.81 902.35,141.81 902.35,418.94 896.28,418.94 "/>
      <polygon id="_62" class="fil6" points="900.33,141.81 906.4,141.81 906.4,418.94 900.33,418.94 "/>
      <polygon id="_63" class="fil6" points="904.37,141.81 910.44,141.81 910.44,418.94 904.37,418.94 "/>
      <polygon id="_64" class="fil6" points="908.42,141.81 914.49,141.81 914.49,418.94 908.42,418.94 "/>
      <polygon id="_65" class="fil6" points="912.47,141.81 918.54,141.81 918.54,418.94 912.47,418.94 "/>
      <polygon id="_66" class="fil6" points="916.52,141.81 922.59,141.81 922.59,418.94 916.52,418.94 "/>
      <polygon id="_67" class="fil6" points="920.56,141.81 926.63,141.81 926.63,418.94 920.56,418.94 "/>
      <polygon id="_68" class="fil6" points="924.61,141.81 930.68,141.81 930.68,418.94 924.61,418.94 "/>
      <polygon id="_69" class="fil7" points="928.66,141.81 934.73,141.81 934.73,418.94 928.66,418.94 "/>
      <polygon id="_70" class="fil7" points="932.7,141.81 938.78,141.81 938.78,418.94 932.7,418.94 "/>
      <polygon id="_71" class="fil7" points="936.75,141.81 942.82,141.81 942.82,418.94 936.75,418.94 "/>
      <polygon id="_72" class="fil7" points="940.8,141.81 946.87,141.81 946.87,418.94 940.8,418.94 "/>
      <polygon id="_73" class="fil8" points="944.85,141.81 950.92,141.81 950.92,418.94 944.85,418.94 "/>
      <polygon id="_74" class="fil8" points="948.89,141.81 954.97,141.81 954.97,418.94 948.89,418.94 "/>
      <polygon id="_75" class="fil8" points="952.94,141.81 959.01,141.81 959.01,418.94 952.94,418.94 "/>
      <polygon id="_76" class="fil8" points="956.99,141.81 963.06,141.81 963.06,418.94 956.99,418.94 "/>
      <polygon id="_77" class="fil8" points="961.04,141.81 967.11,141.81 967.11,418.94 961.04,418.94 "/>
      <polygon id="_78" class="fil8" points="965.09,141.81 971.16,141.81 971.16,418.94 965.09,418.94 "/>
      <polygon id="_79" class="fil8" points="969.13,141.81 975.2,141.81 975.2,418.94 969.13,418.94 "/>
      <polygon id="_80" class="fil8" points="973.18,141.81 979.25,141.81 979.25,418.94 973.18,418.94 "/>
      <polygon id="_81" class="fil8" points="977.23,141.81 983.3,141.81 983.3,418.94 977.23,418.94 "/>
      <polygon id="_82" class="fil8" points="981.28,141.81 987.35,141.81 987.35,418.94 981.28,418.94 "/>
      <polygon id="_83" class="fil8" points="985.32,141.81 991.39,141.81 991.39,418.94 985.32,418.94 "/>
      <polygon id="_84" class="fil8" points="989.37,141.81 995.44,141.81 995.44,418.94 989.37,418.94 "/>
      <polygon id="_85" class="fil9" points="993.42,141.81 999.49,141.81 999.49,418.94 993.42,418.94 "/>
      <polygon id="_86" class="fil9" points="997.47,141.81 1003.54,141.81 1003.54,418.94 997.47,418.94 "/>
      <polygon id="_87" class="fil10" points="1001.51,141.81 1007.58,141.81 1007.58,418.94 1001.51,418.94 "/>
      <polygon id="_88" class="fil10" points="1005.56,141.81 1011.63,141.81 1011.63,418.94 1005.56,418.94 "/>
      <polygon id="_89" class="fil10" points="1009.61,141.81 1015.68,141.81 1015.68,418.94 1009.61,418.94 "/>
      <polygon id="_90" class="fil10" points="1013.65,141.81 1019.73,141.81 1019.73,418.94 1013.65,418.94 "/>
      <polygon id="_91" class="fil10" points="1017.7,141.81 1023.77,141.81 1023.77,418.94 1017.7,418.94 "/>
      <polygon id="_92" class="fil11" points="1021.75,141.81 1027.82,141.81 1027.82,418.94 1021.75,418.94 "/>
      <polygon id="_93" class="fil11" points="1025.8,141.81 1031.87,141.81 1031.87,418.94 1025.8,418.94 "/>
      <polygon id="_94" class="fil11" points="1029.84,141.81 1035.92,141.81 1035.92,418.94 1029.84,418.94 "/>
      <polygon id="_95" class="fil11" points="1033.89,141.81 1039.96,141.81 1039.96,418.94 1033.89,418.94 "/>
      <polygon id="_96" class="fil12" points="1037.94,141.81 1044.01,141.81 1044.01,418.94 1037.94,418.94 "/>
      <polygon id="_97" class="fil12" points="1041.99,141.81 1048.06,141.81 1048.06,418.94 1041.99,418.94 "/>
      <polygon id="_98" class="fil12" points="1046.04,141.81 1052.11,141.81 1052.11,418.94 1046.04,418.94 "/>
      <polygon id="_99" class="fil12" points="1050.08,141.81 1056.15,141.81 1056.15,418.94 1050.08,418.94 "/>
      <polygon id="_100" class="fil12" points="1054.13,141.81 1060.2,141.81 1060.2,418.94 1054.13,418.94 "/>
      <polygon id="_101" class="fil12" points="1058.18,141.81 1064.25,141.81 1064.25,418.94 1058.18,418.94 "/>
      <polygon id="_102" class="fil12" points="1062.23,141.81 1068.3,141.81 1068.3,418.94 1062.23,418.94 "/>
      <polygon id="_103" class="fil12" points="1066.27,141.81 1072.34,141.81 1072.34,418.94 1066.27,418.94 "/>
      <polygon id="_104" class="fil12" points="1070.32,141.81 1076.39,141.81 1076.39,418.94 1070.32,418.94 "/>
      <polygon id="_105" class="fil13" points="1074.37,141.81 1080.44,141.81 1080.44,418.94 1074.37,418.94 "/>
      <polygon id="_106" class="fil13" points="1078.42,141.81 1084.49,141.81 1084.49,418.94 1078.42,418.94 "/>
      <polygon id="_107" class="fil13" points="1082.46,141.81 1088.53,141.81 1088.53,418.94 1082.46,418.94 "/>
      <polygon id="_108" class="fil13" points="1086.51,141.81 1092.58,141.81 1092.58,418.94 1086.51,418.94 "/>
      <polygon id="_109" class="fil13" points="1090.56,141.81 1096.63,141.81 1096.63,418.94 1090.56,418.94 "/>
      <polygon id="_110" class="fil13" points="1094.6,141.81 1100.68,141.81 1100.68,418.94 1094.6,418.94 "/>
      <polygon id="_111" class="fil13" points="1098.65,141.81 1104.72,141.81 1104.72,418.94 1098.65,418.94 "/>
      <polygon id="_112" class="fil13" points="1102.7,141.81 1108.77,141.81 1108.77,418.94 1102.7,418.94 "/>
      <polygon id="_113" class="fil13" points="1106.75,141.81 1112.82,141.81 1112.82,418.94 1106.75,418.94 "/>
      <polygon id="_114" class="fil14" points="1110.79,141.81 1116.87,141.81 1116.87,418.94 1110.79,418.94 "/>
      <polygon id="_115" class="fil14" points="1114.84,141.81 1120.91,141.81 1120.91,418.94 1114.84,418.94 "/>
      <polygon id="_116" class="fil14" points="1118.89,141.81 1124.96,141.81 1124.96,418.94 1118.89,418.94 "/>
      <polygon id="_117" class="fil14" points="1122.94,141.81 1129.01,141.81 1129.01,418.94 1122.94,418.94 "/>
      <polygon id="_118" class="fil14" points="1126.99,141.81 1133.06,141.81 1133.06,418.94 1126.99,418.94 "/>
      <polygon id="_119" class="fil14" points="1131.03,141.81 1137.1,141.81 1137.1,418.94 1131.03,418.94 "/>
      <polygon id="_120" class="fil14" points="1135.08,141.81 1141.15,141.81 1141.15,418.94 1135.08,418.94 "/>
      <polygon id="_121" class="fil14" points="1139.13,141.81 1145.2,141.81 1145.2,418.94 1139.13,418.94 "/>
      <polygon id="_122" class="fil15" points="1143.18,141.81 1149.25,141.81 1149.25,418.94 1143.18,418.94 "/>
      <polygon id="_123" class="fil15" points="1147.22,141.81 1153.29,141.81 1153.29,418.94 1147.22,418.94 "/>
      <polygon id="_124" class="fil15" points="1151.27,141.81 1157.34,141.81 1157.34,418.94 1151.27,418.94 "/>
      <polygon id="_125" class="fil15" points="1155.32,141.81 1161.39,141.81 1161.39,418.94 1155.32,418.94 "/>
      <polygon id="_126" class="fil15" points="1159.37,141.81 1165.44,141.81 1165.44,418.94 1159.37,418.94 "/>
      <polygon id="_127" class="fil15" points="1163.41,141.81 1169.48,141.81 1169.48,418.94 1163.41,418.94 "/>
      <polygon id="_128" class="fil16" points="1167.46,141.81 1173.53,141.81 1173.53,418.94 1167.46,418.94 "/>
      <polygon id="_129" class="fil17" points="1171.51,141.81 1177.58,141.81 1177.58,418.94 1171.51,418.94 "/>
      <polygon id="_130" class="fil17" points="1175.56,141.81 1181.63,141.81 1181.63,418.94 1175.56,418.94 "/>
      <polygon id="_131" class="fil17" points="1179.6,141.81 1185.67,141.81 1185.67,418.94 1179.6,418.94 "/>
      <polygon id="_132" class="fil17" points="1183.65,141.81 1189.72,141.81 1189.72,418.94 1183.65,418.94 "/>
      <polygon id="_133" class="fil17" points="1187.7,141.81 1193.77,141.81 1193.77,418.94 1187.7,418.94 "/>
      <polygon id="_134" class="fil17" points="1191.74,141.81 1197.82,141.81 1197.82,418.94 1191.74,418.94 "/>
      <polygon id="_135" class="fil18" points="1195.79,141.81 1201.86,141.81 1201.86,418.94 1195.79,418.94 "/>
      <polygon id="_136" class="fil18" points="1199.84,141.81 1205.91,141.81 1205.91,418.94 1199.84,418.94 "/>
      <polygon id="_137" class="fil18" points="1203.89,141.81 1209.96,141.81 1209.96,418.94 1203.89,418.94 "/>
      <polygon id="_138" class="fil18" points="1207.93,141.81 1214.01,141.81 1214.01,418.94 1207.93,418.94 "/>
      <polygon id="_139" class="fil18" points="1211.98,141.81 1218.05,141.81 1218.05,418.94 1211.98,418.94 "/>
      <polygon id="_140" class="fil19" points="1216.03,141.81 1222.1,141.81 1222.1,418.94 1216.03,418.94 "/>
      <polygon id="_141" class="fil20" points="1220.08,141.81 1226.15,141.81 1226.15,418.94 1220.08,418.94 "/>
      <polygon id="_142" class="fil20" points="1224.13,141.81 1230.2,141.81 1230.2,418.94 1224.13,418.94 "/>
      <polygon id="_143" class="fil20" points="1228.17,141.81 1234.24,141.81 1234.24,418.94 1228.17,418.94 "/>
      <polygon id="_144" class="fil20" points="1232.22,141.81 1238.29,141.81 1238.29,418.94 1232.22,418.94 "/>
      <polygon id="_145" class="fil21" points="1236.27,141.81 1242.34,141.81 1242.34,418.94 1236.27,418.94 "/>
      <polygon id="_146" class="fil22" points="1240.32,141.81 1246.39,141.81 1246.39,418.94 1240.32,418.94 "/>
      <polygon id="_147" class="fil22" points="1244.36,141.81 1250.43,141.81 1250.43,418.94 1244.36,418.94 "/>
      <polygon id="_148" class="fil22" points="1248.41,141.81 1254.48,141.81 1254.48,418.94 1248.41,418.94 "/>
      <polygon id="_149" class="fil23" points="1252.46,141.81 1258.53,141.81 1258.53,418.94 1252.46,418.94 "/>
      <polygon id="_150" class="fil23" points="1256.51,141.81 1262.58,141.81 1262.58,418.94 1256.51,418.94 "/>
      <polygon id="_151" class="fil24" points="1260.55,141.81 1266.62,141.81 1266.62,418.94 1260.55,418.94 "/>
      <polygon id="_152" class="fil25" points="1264.6,141.81 1270.67,141.81 1270.67,418.94 1264.6,418.94 "/>
      <polygon id="_153" class="fil25" points="1268.65,141.81 1274.72,141.81 1274.72,418.94 1268.65,418.94 "/>
      <polygon id="_154" class="fil25" points="1272.69,141.81 1278.77,141.81 1278.77,418.94 1272.69,418.94 "/>
      <polygon id="_155" class="fil25" points="1276.74,141.81 1282.81,141.81 1282.81,418.94 1276.74,418.94 "/>
      <polygon id="_156" class="fil26" points="1280.79,141.81 1286.86,141.81 1286.86,418.94 1280.79,418.94 "/>
      <polygon id="_157" class="fil26" points="1284.84,141.81 1290.91,141.81 1290.91,418.94 1284.84,418.94 "/>
      <polygon id="_158" class="fil26" points="1288.88,141.81 1294.96,141.81 1294.96,418.94 1288.88,418.94 "/>
      <polygon id="_159" class="fil27" points="1292.93,141.81 1299,141.81 1299,418.94 1292.93,418.94 "/>
      <polygon id="_160" class="fil27" points="1296.98,141.81 1303.05,141.81 1303.05,418.94 1296.98,418.94 "/>
      <polygon id="_161" class="fil28" points="1301.03,141.81 1307.1,141.81 1307.1,418.94 1301.03,418.94 "/>
      <polygon id="_162" class="fil29" points="1305.08,141.81 1311.15,141.81 1311.15,418.94 1305.08,418.94 "/>
      <polygon id="_163" class="fil29" points="1309.12,141.81 1315.19,141.81 1315.19,418.94 1309.12,418.94 "/>
      <polygon id="_164" class="fil29" points="1313.17,141.81 1319.24,141.81 1319.24,418.94 1313.17,418.94 "/>
      <polygon id="_165" class="fil30" points="1317.22,141.81 1323.29,141.81 1323.29,418.94 1317.22,418.94 "/>
      <polygon id="_166" class="fil30" points="1321.27,141.81 1327.34,141.81 1327.34,418.94 1321.27,418.94 "/>
      <polygon id="_167" class="fil30" points="1325.31,141.81 1331.38,141.81 1331.38,418.94 1325.31,418.94 "/>
      <polygon id="_168" class="fil31" points="1329.36,141.81 1335.43,141.81 1335.43,418.94 1329.36,418.94 "/>
      <polygon id="_169" class="fil31" points="1333.41,141.81 1339.48,141.81 1339.48,418.94 1333.41,418.94 "/>
      <polygon id="_170" class="fil32" points="1337.46,141.81 1343.53,141.81 1343.53,418.94 1337.46,418.94 "/>
      <polygon id="_171" class="fil33" points="1341.5,141.81 1347.57,141.81 1347.57,418.94 1341.5,418.94 "/>
      <polygon id="_172" class="fil33" points="1345.55,141.81 1351.62,141.81 1351.62,418.94 1345.55,418.94 "/>
      <polygon id="_173" class="fil34" points="1349.6,141.81 1355.67,141.81 1355.67,418.94 1349.6,418.94 "/>
      <polygon id="_174" class="fil35" points="1353.64,141.81 1359.72,141.81 1359.72,418.94 1353.64,418.94 "/>
      <polygon id="_175" class="fil35" points="1357.69,141.81 1363.76,141.81 1363.76,418.94 1357.69,418.94 "/>
      <polygon id="_176" class="fil36" points="1361.74,141.81 1367.81,141.81 1367.81,418.94 1361.74,418.94 "/>
      <polygon id="_177" class="fil36" points="1365.79,141.81 1371.86,141.81 1371.86,418.94 1365.79,418.94 "/>
      <polygon id="_178" class="fil37" points="1369.83,141.81 1375.91,141.81 1375.91,418.94 1369.83,418.94 "/>
      <polygon id="_179" class="fil38" points="1373.88,141.81 1379.95,141.81 1379.95,418.94 1373.88,418.94 "/>
      <polygon id="_180" class="fil38" points="1377.93,141.81 1384,141.81 1384,418.94 1377.93,418.94 "/>
      <polygon id="_181" class="fil39" points="1381.98,141.81 1388.05,141.81 1388.05,418.94 1381.98,418.94 "/>
      <polygon id="_182" class="fil39" points="1386.03,141.81 1392.1,141.81 1392.1,418.94 1386.03,418.94 "/>
      <polygon id="_183" class="fil40" points="1390.07,141.81 1396.14,141.81 1396.14,418.94 1390.07,418.94 "/>
      <polygon id="_184" class="fil41" points="1394.12,141.81 1400.19,141.81 1400.19,418.94 1394.12,418.94 "/>
      <polygon id="_185" class="fil41" points="1398.17,141.81 1404.24,141.81 1404.24,418.94 1398.17,418.94 "/>
      <polygon id="_186" class="fil41" points="1402.22,141.81 1408.29,141.81 1408.29,418.94 1402.22,418.94 "/>
      <polygon id="_187" class="fil42" points="1406.26,141.81 1412.33,141.81 1412.33,418.94 1406.26,418.94 "/>
      <polygon id="_188" class="fil42" points="1410.31,141.81 1416.38,141.81 1416.38,418.94 1410.31,418.94 "/>
      <polygon id="_189" class="fil43" points="1414.36,141.81 1420.43,141.81 1420.43,418.94 1414.36,418.94 "/>
      <polygon id="_190" class="fil43" points="1418.41,141.81 1424.48,141.81 1424.48,418.94 1418.41,418.94 "/>
      <polygon id="_191" class="fil43" points="1422.45,141.81 1428.52,141.81 1428.52,418.94 1422.45,418.94 "/>
      <polygon id="_192" class="fil44" points="1426.5,141.81 1432.57,141.81 1432.57,418.94 1426.5,418.94 "/>
      <polygon id="_193" class="fil44" points="1430.55,141.81 1436.62,141.81 1436.62,418.94 1430.55,418.94 "/>
      <polygon id="_194" class="fil44" points="1434.59,141.81 1440.67,141.81 1440.67,418.94 1434.59,418.94 "/>
      <polygon id="_195" class="fil45" points="1438.64,141.81 1444.71,141.81 1444.71,418.94 1438.64,418.94 "/>
      <polygon id="_196" class="fil46" points="1442.69,141.81 1448.76,141.81 1448.76,418.94 1442.69,418.94 "/>
      <polygon id="_197" class="fil47" points="1446.74,141.81 1452.81,141.81 1452.81,418.94 1446.74,418.94 "/>
      <polygon id="_198" class="fil47" points="1450.78,141.81 1456.86,141.81 1456.86,418.94 1450.78,418.94 "/>
      <polygon id="_199" class="fil47" points="1454.83,141.81 1460.9,141.81 1460.9,418.94 1454.83,418.94 "/>
      <polygon id="_200" class="fil48" points="1458.88,141.81 1464.95,141.81 1464.95,418.94 1458.88,418.94 "/>
      <polygon id="_201" class="fil49" points="1462.93,141.81 1469,141.81 1469,418.94 1462.93,418.94 "/>
      <polygon id="_202" class="fil49" points="1466.98,141.81 1473.05,141.81 1473.05,418.94 1466.98,418.94 "/>
      <polygon id="_203" class="fil50" points="1471.02,141.81 1477.09,141.81 1477.09,418.94 1471.02,418.94 "/>
      <polygon id="_204" class="fil50" points="1475.07,141.81 1481.14,141.81 1481.14,418.94 1475.07,418.94 "/>
      <polygon id="_205" class="fil51" points="1479.12,141.81 1485.19,141.81 1485.19,418.94 1479.12,418.94 "/>
      <polygon id="_206" class="fil52" points="1483.17,141.81 1489.24,141.81 1489.24,418.94 1483.17,418.94 "/>
      <polygon id="_207" class="fil52" points="1487.21,141.81 1493.28,141.81 1493.28,418.94 1487.21,418.94 "/>
      <polygon id="_208" class="fil53" points="1491.26,141.81 1497.33,141.81 1497.33,418.94 1491.26,418.94 "/>
      <polygon id="_209" class="fil53" points="1495.31,141.81 1501.38,141.81 1501.38,418.94 1495.31,418.94 "/>
      <polygon id="_210" class="fil53" points="1499.36,141.81 1505.43,141.81 1505.43,418.94 1499.36,418.94 "/>
      <polygon id="_211" class="fil54" points="1503.4,141.81 1509.47,141.81 1509.47,418.94 1503.4,418.94 "/>
      <polygon id="_212" class="fil55" points="1507.45,141.81 1513.52,141.81 1513.52,418.94 1507.45,418.94 "/>
      <polygon id="_213" class="fil55" points="1511.5,141.81 1517.57,141.81 1517.57,418.94 1511.5,418.94 "/>
      <polygon id="_214" class="fil56" points="1515.55,141.81 1521.62,141.81 1521.62,418.94 1515.55,418.94 "/>
      <polygon id="_215" class="fil56" points="1519.59,141.81 1525.66,141.81 1525.66,418.94 1519.59,418.94 "/>
      <polygon id="_216" class="fil56" points="1523.64,141.81 1529.71,141.81 1529.71,418.94 1523.64,418.94 "/>
      <polygon id="_217" class="fil57" points="1527.69,141.81 1533.76,141.81 1533.76,418.94 1527.69,418.94 "/>
      <polygon id="_218" class="fil58" points="1531.73,141.81 1537.81,141.81 1537.81,418.94 1531.73,418.94 "/>
      <polygon id="_219" class="fil58" points="1535.78,141.81 1541.85,141.81 1541.85,418.94 1535.78,418.94 "/>
      <polygon id="_220" class="fil58" points="1539.83,141.81 1545.9,141.81 1545.9,418.94 1539.83,418.94 "/>
      <polygon id="_221" class="fil59" points="1543.88,141.81 1549.95,141.81 1549.95,418.94 1543.88,418.94 "/>
      <polygon id="_222" class="fil59" points="1547.92,141.81 1554,141.81 1554,418.94 1547.92,418.94 "/>
      <polygon id="_223" class="fil59" points="1551.97,141.81 1558.04,141.81 1558.04,418.94 1551.97,418.94 "/>
      <polygon id="_224" class="fil60" points="1556.02,141.81 1562.09,141.81 1562.09,418.94 1556.02,418.94 "/>
      <polygon id="_225" class="fil61" points="1560.07,141.81 1566.14,141.81 1566.14,418.94 1560.07,418.94 "/>
      <polygon id="_226" class="fil61" points="1564.12,141.81 1570.19,141.81 1570.19,418.94 1564.12,418.94 "/>
      <polygon id="_227" class="fil61" points="1568.16,141.81 1574.23,141.81 1574.23,418.94 1568.16,418.94 "/>
      <polygon id="_228" class="fil61" points="1572.21,141.81 1578.28,141.81 1578.28,418.94 1572.21,418.94 "/>
      <polygon id="_229" class="fil62" points="1576.26,141.81 1582.33,141.81 1582.33,418.94 1576.26,418.94 "/>
      <polygon id="_230" class="fil62" points="1580.31,141.81 1586.38,141.81 1586.38,418.94 1580.31,418.94 "/>
      <polygon id="_231" class="fil63" points="1584.35,141.81 1590.42,141.81 1590.42,418.94 1584.35,418.94 "/>
      <polygon id="_232" class="fil63" points="1588.4,141.81 1594.47,141.81 1594.47,418.94 1588.4,418.94 "/>
      <polygon id="_233" class="fil64" points="1592.45,141.81 1598.52,141.81 1598.52,418.94 1592.45,418.94 "/>
      <polygon id="_234" class="fil64" points="1596.5,141.81 1602.57,141.81 1602.57,418.94 1596.5,418.94 "/>
      <polygon id="_235" class="fil64" points="1600.54,141.81 1606.61,141.81 1606.61,418.94 1600.54,418.94 "/>
      <polygon id="_236" class="fil64" points="1604.59,141.81 1610.66,141.81 1610.66,418.94 1604.59,418.94 "/>
      <polygon id="_237" class="fil64" points="1608.64,141.81 1614.71,141.81 1614.71,418.94 1608.64,418.94 "/>
      <polygon id="_238" class="fil65" points="1612.68,141.81 1618.76,141.81 1618.76,418.94 1612.68,418.94 "/>
      <polygon id="_239" class="fil65" points="1616.73,141.81 1622.8,141.81 1622.8,418.94 1616.73,418.94 "/>
      <polygon id="_240" class="fil65" points="1620.78,141.81 1626.85,141.81 1626.85,418.94 1620.78,418.94 "/>
      <polygon id="_241" class="fil65" points="1624.83,141.81 1630.9,141.81 1630.9,418.94 1624.83,418.94 "/>
      <polygon id="_242" class="fil66" points="1628.87,141.81 1634.95,141.81 1634.95,418.94 1628.87,418.94 "/>
      <polygon id="_243" class="fil66" points="1632.92,141.81 1638.99,141.81 1638.99,418.94 1632.92,418.94 "/>
      <polygon id="_244" class="fil66" points="1636.97,141.81 1643.04,141.81 1643.04,418.94 1636.97,418.94 "/>
      <polygon id="_245" class="fil66" points="1641.02,141.81 1647.09,141.81 1647.09,418.94 1641.02,418.94 "/>
      <polygon id="_246" class="fil67" points="1645.07,141.81 1651.14,141.81 1651.14,418.94 1645.07,418.94 "/>
      <polygon id="_247" class="fil67" points="1649.11,141.81 1655.18,141.81 1655.18,418.94 1649.11,418.94 "/>
      <polygon id="_248" class="fil67" points="1653.16,141.81 1659.23,141.81 1659.23,418.94 1653.16,418.94 "/>
      <polygon id="_249" class="fil67" points="1657.21,141.81 1663.28,141.81 1663.28,418.94 1657.21,418.94 "/>
      <polygon id="_250" class="fil67" points="1661.26,141.81 1667.33,141.81 1667.33,418.94 1661.26,418.94 "/>
      <polygon id="_251" class="fil67" points="1665.3,141.81 1671.37,141.81 1671.37,418.94 1665.3,418.94 "/>
      <polygon id="_252" class="fil67" points="1669.35,141.81 1675.42,141.81 1675.42,418.94 1669.35,418.94 "/>
      <polygon id="_253" class="fil67" points="1673.4,141.81 1679.47,141.81 1679.47,418.94 1673.4,418.94 "/>
      <polygon id="_254" class="fil67" points="1677.45,141.81 1683.52,141.81 1683.52,418.94 1677.45,418.94 "/>
      <polygon id="_255" class="fil67" points="1681.49,141.81 1685.54,141.81 1685.54,418.94 1681.49,418.94 "/>
     </g>
    </g>
    <g>
     <g style="clip-path:url(#id2)">
      <image x="-0" y="0" width="414.11" height="487.96" xlink:href="arel-logo-padrao-distribuidora_Images\arel-logo-padrao-distribuidora_ImgID2.png"/>
     </g>
    </g>
    <path class="fil68" d="M305.25 174.39c40.72,-82.5 61.08,-123.75 61.08,-123.75 -2.92,-1.98 -6.58,-2.94 -10.96,-2.86 0,0 -34.5,0.11 -103.5,0.33 -10.28,-0.88 -23.71,18.1 -40.29,56.94 0,0 -53.38,105.9 -160.15,317.7 -7.08,12.49 -3.87,18.27 9.63,17.33 71.17,-0.17 106.76,-0.26 106.76,-0.26 0,0 20.53,-39.65 61.58,-118.94 20.27,-39.16 45.55,-87.99 75.84,-146.48z"/>
    <path class="fil69" d="M335.44 395.36c0,0 -35.37,-24.65 -106.03,-74.48 -41.05,79.29 -61.58,118.94 -61.58,118.94 54.87,-0.12 96.87,0.93 120.82,0.03 20.86,-0.78 19.31,1.12 28.74,-14.46 6.56,-10.83 12.57,-20.85 18.06,-30.03z"/>
    <g>
     <g style="clip-path:url(#id3)">
      <image x="218.19" y="309.37" width="171.58" height="97.2" xlink:href="arel-logo-padrao-distribuidora_Images\arel-logo-padrao-distribuidora_ImgID3.png"/>
     </g>
    </g>
    <path class="fil70" d="M229.41 320.88c70.66,49.83 106.03,74.48 106.03,74.48 29.07,-48.68 43.12,-73.98 43.12,-73.98 -99.97,-1.41 -149.15,-0.5 -149.15,-0.5z"/>
    <g>
     <g style="clip-path:url(#id4)">
      <image x="267.34" y="12.74" width="328.51" height="465.69" xlink:href="arel-logo-padrao-distribuidora_Images\arel-logo-padrao-distribuidora_ImgID4.png"/>
     </g>
    </g>
    <path class="fil69" d="M305.25 174.39c0,0 24.44,48.99 73.31,146.98 9.48,19 19.87,39.83 31.18,62.52 2.86,5.62 3.34,10.77 1.45,15.45 0,0 -4.7,10.38 -14.09,31.13 -1.76,8.25 19.98,9.31 72.34,8.61 23.4,-0.31 56,3.44 78.01,-0.06 9.74,-1.55 12.7,-6.96 8.87,-16.2 -49.92,-117.63 -124.96,-248.22 -183.38,-362.99 -1.45,-4.11 -3.66,-7.18 -6.61,-9.18 0,0 -20.36,41.25 -61.08,123.75z"/>
   </g>
  </g>
  <path class="fil61" d="M1402.3 486.73l-15.55 39.1c-4.24,10.38 -13.59,29.53 -15.75,39.38l17.33 0.05 7.11 -18.19 32.45 0.06 7.23 17.85 17.32 0.08c-1.94,-7.38 -29.95,-74.96 -32.31,-78.15l-17.82 -0.17zm-940.75 0.09c-9.6,1.43 -19.61,9.05 -21.26,17.97 -4.35,23.58 15.77,26.21 29.74,29.29 20.38,4.5 13.14,18.61 -2.94,18.03 -11.34,-0.41 -13.91,-5.6 -20.48,-7.88 -1.34,2.63 -2.61,4.31 -4.35,6.74 -2.68,3.76 -2.72,3.13 -3.59,7.67 9.39,4.35 18.92,9.12 32.89,8.39 22.43,-1.16 32.26,-18.14 25.48,-34.53 -6.7,-16.19 -36.8,-10.95 -40.69,-20.08 -0.46,-8.05 4.99,-11.89 12.87,-11.69 9.06,0.23 12.95,5.03 18.92,6.66l3.63 -6.81c1.79,-3.45 1.89,-2.33 2.56,-6.93 -6.78,-6.12 -21.55,-8.51 -32.77,-6.83zm-76.95 0.96l-0.05 78.39 16.21 -0.14 0.06 -78.28 -16.22 0.03zm-59.13 74.01c26.74,-12.99 28.3,-56.96 1.09,-69.65 -10.26,-4.79 -38.18,-6.02 -51.67,-3.46l-0.25 77.42c16.15,-0.05 37.66,2.09 50.83,-4.31zm-34.43 -58.9c21.78,-0.84 38.71,0.43 38.44,24.06 -0.25,22.38 -17.99,24.01 -38.62,24.12l0.18 -48.18zm277.16 63.09l-0.1 -62.79 23.59 -0.43 -0.01 -14.77 -62.7 0.07 -0.27 14.85 22.7 -0.09 -0.1 62.85 16.89 0.31zm122 -44.52c3.43,-9.37 0.07,-19.05 -5.43,-24.72 -11.22,-11.55 -37.96,-8.73 -57.21,-8.23l0.12 77.85 16.3 -0.53 0.07 -27.15 12.72 -0.54 17.76 27.51 17.85 0.3c-1.2,-6.22 -13.78,-24.06 -17.6,-29.04 8.74,-5.22 11.69,-5.27 15.42,-15.46zm-45.95 -18.16c11.54,-2.16 29.98,-2.01 30.09,10.3 0.12,13.16 -18.82,12.24 -30.22,10.35l0.13 -20.65zm100.42 62.65l0.17 -79.11 -16.13 0.19c-0.78,10.57 -1.25,72.17 0.61,78.84l15.35 0.08zm42.42 0.45c18.88,-2.67 63.87,8.71 63.09,-23.95 -0.29,-11.93 -4.63,-13.21 -10.71,-17.95 3.25,-4.17 7.96,-7.88 7.3,-17.55 -1.65,-24.27 -33.92,-18.55 -59.77,-18.58l0.09 78.03zm46.6 -24.06c-0.41,12.61 -19.22,9.16 -30.32,8.92l0.42 -18.12c11.06,-0.11 30.32,-3.64 29.9,9.2zm-3.11 -31.13c-0.8,11.28 -16.1,8.81 -27.19,8.68l-0.13 -17.18c10.1,0.17 28.15,-3.28 27.31,8.51zm124.32 33.06c2.14,-9.54 1.05,-44.65 0.84,-56.58l-16.26 0.17c-0.13,13.38 -0.01,26.81 -0.02,40.18 -0.01,14.7 -1.72,23 -17.48,23.22 -15.28,0.22 -18.31,-7.89 -18.28,-22.11 0.02,-13.86 0.15,-27.74 0.13,-41.6l-16.28 0.11c-0.16,14.89 -1.31,42.05 0.75,54.94 5.06,31.6 59.64,32.65 66.6,1.66zm57.75 20.94l-0.14 -77.8 -15.87 0.05 0.18 78 15.83 -0.25zm42.48 -0.36c31.15,2.64 72.23,3.47 71.46,-39.05 -0.3,-16.86 -9.25,-28.33 -20.73,-34.12 -9.54,-4.82 -37.26,-7.29 -50.89,-4.22l0.16 77.39zm55.07 -38.92c1.53,24.62 -22.57,24.54 -38.3,23.92l-0.17 -47.49c13.98,0.1 36.83,-2.89 38.47,23.57zm101.34 39.97c23.57,-5.81 34.87,-28.54 29.34,-49.39 -5.14,-19.35 -25.41,-35.45 -50.66,-28.92 -52.03,13.47 -31.68,91.38 21.32,78.31zm13.05 -33.42c-8.39,31.71 -54.76,21.24 -46.79,-12.84 2.64,-11.3 14.52,-21.26 29.54,-17.22 10.97,2.95 21,15.88 17.25,30.06zm101.4 4.44c7.07,-4.15 12.52,-7.53 15.02,-15.98 2.81,-9.54 -0.76,-19.19 -5.98,-24.28 -6.31,-6.15 -12.75,-7.72 -23.64,-7.87 -10.84,-0.15 -21.72,-0.11 -32.57,-0.13l0.03 77.28 16.24 0.1 -0.01 -27.68 12.96 -0.08c4.95,9.84 10.81,18 16.79,27.34l18.48 0.19c-3.66,-10.38 -14.37,-20.69 -17.32,-28.89zm-0.57 -23.12c0.78,13.89 -21.45,10.85 -30.27,10.59l0.13 -21.24c11.83,-0.85 29.45,-1.7 30.14,10.65zm76.29 19.37c0.36,-4.28 5.57,-14.37 7.42,-19.6 0.84,-2.36 1.13,-3.9 2.12,-6.2l1.69 2.49c0.11,0.22 0.24,0.53 0.34,0.75l8.73 22.52 -20.31 0.05z"/>
 </g>
</svg>
