<?xml version="1.0" encoding="UTF-8"?>
<!DOCTYPE svg PUBLIC "-//W3C//DTD SVG 1.1//EN" "http://www.w3.org/Graphics/SVG/1.1/DTD/svg11.dtd">
<!-- Creator: CorelDRAW -->
<svg xmlns="http://www.w3.org/2000/svg" xml:space="preserve" width="184.3mm" height="56.2444mm" version="1.1" shape-rendering="geometricPrecision" text-rendering="geometricPrecision" image-rendering="optimizeQuality" fill-rule="evenodd" clip-rule="evenodd"
viewBox="0 0 3131.42 955.64"
 xmlns:xlink="http://www.w3.org/1999/xlink"
 xmlns:xodm="http://www.corel.com/coreldraw/odm/2003">
 <g id="Camada_x0020_1">
  <metadata id="CorelCorpID_0Corel-Layer"/>
  <g id="_2608188021024">
   <path fill="#F3F1ED" fill-rule="nonzero" d="M802.93 415.23l237.82 0c-5.32,-29.57 -17.61,-51.6 -36.83,-66.11 -19.24,-14.49 -45.41,-21.74 -78.53,-21.74 -32.54,0 -59.16,7.4 -79.87,22.18 -20.72,14.79 -34.91,36.69 -42.59,65.66zm127.78 338.09c-58.57,0 -109.45,-11.38 -152.63,-34.16 -43.19,-22.77 -76.47,-55.02 -99.83,-96.73 -23.38,-41.71 -35.05,-90.95 -35.05,-147.75 0,-56.79 11.38,-105.74 34.16,-146.86 22.77,-41.11 55.31,-72.77 97.61,-94.95 42.29,-22.18 92.13,-33.28 149.53,-33.28 56.79,0 105.6,10.8 146.42,32.39 40.82,21.6 72.02,52.5 93.61,92.73 21.59,40.24 32.39,88.45 32.39,144.65l0 52.36 -396.66 0c6.5,34.32 20.7,60.2 42.59,77.65 21.88,17.45 50.87,26.18 86.96,26.18 28.98,0 51.61,-4.58 67.89,-13.76 16.26,-9.16 27.95,-23.81 35.05,-43.92l163.28 0c-11.24,57.99 -40.24,103.38 -86.97,136.21 -46.74,32.83 -106.19,49.25 -178.36,49.25z"/>
   <path fill="#F3F1ED" fill-rule="nonzero" d="M1580.27 611.34c42,0 73.21,-12.12 93.62,-36.38 20.41,-24.25 30.62,-57.09 30.62,-98.5 0,-41.41 -10.21,-74.24 -30.62,-98.5 -20.41,-24.25 -51.62,-36.38 -93.62,-36.38 -36.68,0 -65.66,10.21 -86.96,30.62 -21.3,20.4 -31.95,48.67 -31.95,84.74l0 39.05c0,36.09 10.65,64.33 31.95,84.74 21.3,20.41 50.28,30.62 86.96,30.62zm-282.18 344.3l0 -585.67 -79.87 0 0 -159.73 163.28 0 0 88.74 37.27 0c18.93,-31.35 44.51,-55.76 76.76,-73.21 32.24,-17.44 70.84,-26.18 115.8,-26.18 56.2,0 103.23,11.68 141.1,35.05 37.85,23.38 66.55,55.77 86.07,97.17 19.52,41.41 29.29,89.62 29.29,144.65 0,55.02 -9.47,103.38 -28.41,145.09 -18.94,41.71 -46.45,74.09 -82.52,97.17 -36.1,23.08 -79.86,34.61 -131.33,34.61 -37.87,0 -70.26,-6.96 -97.17,-20.85 -26.93,-13.89 -48.08,-33.28 -63.45,-58.12l-3.55 0 0 281.3 -163.28 0z"/>
   <path fill="#F3F1ED" fill-rule="nonzero" d="M2187.24 611.34c40.82,0 72.02,-12.28 93.62,-36.83 21.59,-24.53 32.39,-57.52 32.39,-98.94 0,-41.41 -10.8,-74.1 -32.39,-98.06 -21.6,-23.96 -52.8,-35.94 -93.62,-35.94 -41.41,0 -73.07,11.98 -94.95,35.94 -21.89,23.96 -32.83,56.65 -32.83,98.06 0,41.41 10.94,74.4 32.83,98.94 21.88,24.56 53.54,36.83 94.95,36.83zm0 141.98c-58.57,0 -109.74,-11.38 -153.51,-34.17 -43.79,-22.77 -77.65,-55.01 -101.61,-96.72 -23.96,-41.71 -35.94,-90.65 -35.94,-146.87 0,-56.2 11.98,-105.01 35.94,-146.42 23.96,-41.4 57.82,-73.35 101.61,-95.84 43.77,-22.47 95.23,-33.72 154.4,-33.72 59.15,0 110.18,11.24 153.08,33.72 42.88,22.49 76.16,54.44 99.83,95.84 23.65,41.41 35.5,90.51 35.5,147.31 0,56.21 -11.84,105.15 -35.5,146.86 -23.67,41.71 -57.1,73.81 -100.28,96.29 -43.19,22.48 -94.37,33.72 -153.52,33.72z"/>
   <path fill="#F3F1ED" fill-rule="nonzero" d="M2577.69 742.67l0 -372.7 -79.86 0 0 -159.73 163.28 0 0 88.74 37.27 0c21.3,-30.76 47.48,-54.87 78.53,-72.33 31.06,-17.44 70.84,-26.17 119.35,-26.17 75.72,0 133.85,20.41 174.37,61.23 40.52,40.81 60.79,95.54 60.79,164.16l0 316.8 -163.28 0 0 -284.85c0,-36.68 -9.62,-64.48 -28.84,-83.41 -19.23,-18.94 -47.48,-28.41 -84.75,-28.41 -37.26,0 -65.53,9.47 -84.74,28.41 -19.23,18.93 -28.84,46.74 -28.84,83.41l0 284.85 -163.28 0z"/>
   <polygon fill="#F3F1ED" fill-rule="nonzero" points="165.45,742.67 -0,742.67 -0,165.44 165.45,165.44 "/>
   <path fill="#F3F1ED" fill-rule="nonzero" d="M578.09 741.75l-199.64 0 -4.78 -6.68 -14.62 -20.21c-29.82,-41.16 -44.67,-89.51 -44.67,-137.93 0,-48.36 14.85,-96.77 44.67,-137.87l0 -0.06 19.97 -27.63c74.21,-102.53 0.98,-245.92 -125.61,-245.92l-87.96 0 0 -165.45 100.23 0c254.56,0 401.88,288.52 252.66,494.73l-19.98 27.63c-23.6,32.52 -23.6,76.62 0,109.21l61.14 84.51 18.59 25.67z"/>
  </g>
 </g>
</svg>
