<?xml version="1.0" encoding="UTF-8"?>
<!DOCTYPE svg PUBLIC "-//W3C//DTD SVG 1.1//EN" "http://www.w3.org/Graphics/SVG/1.1/DTD/svg11.dtd">
<!-- Creator: CorelDRAW -->
<svg xmlns="http://www.w3.org/2000/svg" xml:space="preserve" width="49.3643mm" height="63.4178mm" version="1.1" shape-rendering="geometricPrecision" text-rendering="geometricPrecision" image-rendering="optimizeQuality" fill-rule="evenodd" clip-rule="evenodd"
viewBox="0 0 257.12 330.32"
 xmlns:xlink="http://www.w3.org/1999/xlink"
 xmlns:xodm="http://www.corel.com/coreldraw/odm/2003">
 <g id="Camada_x0020_1">
  <metadata id="CorelCorpID_0Corel-Layer"/>
  <polygon fill="#F3F1ED" fill-rule="nonzero" points="73.59,330.32 -0,330.32 -0,73.59 73.59,73.59 "/>
  <path fill="#F3F1ED" fill-rule="nonzero" d="M257.12 329.91l-88.8 0 -2.12 -2.97 -6.5 -8.99c-13.26,-18.31 -19.87,-39.82 -19.87,-61.35 0,-21.51 6.61,-43.04 19.87,-61.32l0 -0.03 8.88 -12.29c33.01,-45.6 0.44,-109.38 -55.87,-109.38l-39.12 0 0 -73.59 44.58 0c113.22,0 178.74,128.33 112.38,220.04l-8.88 12.29c-10.5,14.47 -10.5,34.08 0,48.57l27.19 37.59 8.27 11.42z"/>
 </g>
</svg>
