<?xml version="1.0" encoding="UTF-8"?>
<!DOCTYPE svg PUBLIC "-//W3C//DTD SVG 1.1//EN" "http://www.w3.org/Graphics/SVG/1.1/DTD/svg11.dtd">
<!-- Creator: CorelDRAW -->
<svg xmlns="http://www.w3.org/2000/svg" xml:space="preserve" width="49.3643mm" height="63.4178mm" version="1.1" shape-rendering="geometricPrecision" text-rendering="geometricPrecision" image-rendering="optimizeQuality" fill-rule="evenodd" clip-rule="evenodd"
viewBox="0 0 149.91 192.59"
 xmlns:xlink="http://www.w3.org/1999/xlink"
 xmlns:xodm="http://www.corel.com/coreldraw/odm/2003">
 <g id="Camada_x0020_1">
  <metadata id="CorelCorpID_0Corel-Layer"/>
  <polygon fill="#0464D5" fill-rule="nonzero" points="42.9,192.59 -0,192.59 -0,42.9 42.9,42.9 "/>
  <path fill="#0464D5" fill-rule="nonzero" d="M149.91 192.35l-51.77 0 -1.24 -1.73 -3.79 -5.24c-7.73,-10.67 -11.58,-23.21 -11.58,-35.77 0,-12.54 3.85,-25.09 11.58,-35.75l0 -0.01 5.18 -7.17c19.24,-26.59 0.26,-63.77 -32.57,-63.77l-22.81 0 0 -42.9 25.99 0c66.01,0 104.21,74.82 65.52,128.29l-5.18 7.17c-6.12,8.43 -6.12,19.87 0,28.32l15.85 21.91 4.82 6.66z"/>
 </g>
</svg>
